{"title":"Superman.1978.Theatrical.Cut.DVDRip.XviD-EXViD","uid":6751674,"size":1528347499,"categoryP":"video","categoryS":"movies","magnet":"?xt=urn:btih:23348b6988728c29cb9349644a2bcc3f9cba6e56&amp;dn=Superman.1978.Theatrical.Cut.DVDRip.XviD-EXViD&amp;tr=udp%3A%2F%2Ftracker.openbittorrent.com%3A80&amp;tr=udp%3A%2F%2Fopen.demonii.com%3A1337&amp;tr=udp%3A%2F%2Ftracker.coppersurfer.tk%3A6969&amp;tr=udp%3A%2F%2Fexodus.desync.com%3A6969","seeders":0,"leechers":0,"uploader":"sceneline","files":110,"time":1318902436,"description":"- &lt;a href=&quot;\nhttp://www.Speed.Cd&quot; rel=&quot;nofollow&quot; target=&quot;_NEW&quot;&gt;\nhttp://www.Speed.Cd&lt;/a&gt;      fast  and The Hottest Private Tracker on the net\n\nPlease Seed back to make the speed Faster!!!\n\n------------------nfo--------------------------\n-                                                                                                     \n       \n     \n     \n       \n       \n     \n     \n                                         \n                                         \n                EXVID                    \n                                         \n         \n                                         \n         Filled the Archives             \n                                         \n         \n                                         \n                With:                    \n                                         \n         \n                                         \n                                    \n     E240                           \n                                    \n     SP               (C) 2009      \n                                         \n     \n     \n     \n                                                                                  \n                                                                                   \n             Superman.1978.Theatrical.Cut.DVDRip.XviD-EXViD                         \n                                                                                   \n                                                                                  \n     \n                                                                                               \nEXViD aims to iNTERNAL those releases which have been lost in the archives.\nEXViD aims to PRE non-internal releases which have poor sources and are likely skipped by others.\n &lt;a href=&quot;\nhttp://www.imdb.com/title/tt0078346/&quot; rel=&quot;nofollow&quot; target=&quot;_NEW&quot;&gt;\nhttp://www.imdb.com/title/tt0078346/&lt;/a&gt;\nSubtitles: EN, FR, ES\nDate: 2011.10\n\nDirector: Richard Donner\n\nGenre: Action | Adventure | Family | Sci-Fi\n\nPlot:\nAn alien orphan is sent from his dying planet to Earth, where he grows up to become his\nadoptive home's first and greatest super-hero.\n\nCast:\nMarlon Brando \t ... \t Jor-El\nGene Hackman \t ... \t Lex Luthor\nChristopher Reeve \t ... \t Superman / Clark Kent\nNed Beatty \t ... \t Otis\nJackie Cooper \t ... \t Perry White\nGlenn Ford \t ... \t Pa Kent\nTrevor Howard \t ... \t 1st Elder\nMargot Kidder \t ... \t Lois Lane\nJack O'Halloran \t ... \t Non\nValerie Perrine \t ... \t Eve Teschmacher\nMaria Schell \t ... \t Vond-Ah\nTerence Stamp \t ... \t General Zod\nPhyllis Thaxter \t ... \t Ma Kent\nSusannah York \t ... \t Lara\nJeff East \t ... \t Young Clark Kent\n\nStats:\nFormat                           : AVI\nFormat/Info                      : Audio Video Interleave\nFile size                        : 1.37 GiB\nDuration                         : 2h 23mn\nOverall bit rate                 : 1 369 Kbps\nWriting application              : Nandub v1.0rc2\nWriting library                  : Nandub build 1852/release\n\nVideo\nID                               : 0\nFormat                           : MPEG-4 Visual\nFormat profile                   : Advanced Simple@L5\nFormat settings, BVOP            : 2\nFormat settings, QPel            : No\nFormat settings, GMC             : No warppoints\nFormat settings, Matrix          : Default (H.263)\nCodec ID                         : XVID\nCodec ID/Hint                    : XviD\nDuration                         : 2h 23mn\nBit rate                         : 1 236 Kbps\nWidth                            : 640 pixels\nHeight                           : 272 pixels\nDisplay aspect ratio             : 2.35:1\nFrame rate                       : 23.976 fps\nColor space                      : YUV\nChroma subsampling               : 4:2:0\nBit depth                        : 8 bits\nScan type                        : Progressive\nCompression mode                 : Lossy\nBits/(Pixel*Frame)               : 0.296\nStream size                      : 1.24 GiB (90%)\nWriting library                  : XviD 64\n\nAudio\nID                               : 1\nFormat                           : MPEG Audio\nFormat version                   : Version 1\nFormat profile                   : Layer 3\nMode                             : Joint stereo\nMode extension                   : MS Stereo\nCodec ID                         : 55\nCodec ID/Hint                    : MP3\nDuration                         : 2h 23mn\nBit rate mode                    : Variable\nBit rate                         : 120 Kbps\nNominal bit rate                 : 128 Kbps\nChannel(s)                       : 2 channels\nSampling rate                    : 48.0 KHz\nCompression mode                 : Lossy\nStream size                      : 123 MiB (9%)\nAlignment                        : Aligned on interleaves\nInterleave, duration             : 24 ms (0.58 video frame)\nInterleave, preload duration     : 146 ms\nWriting library                  : LAME3.98r\nEncoding settings                : -m j -V 4 -q 3 -lowpass 17 --abr 128\n\n\n\n\nRelease notes:\nThe 2001 SChiZO and REQUiEM rips were of the extended version (from the R1 DVD released\nthat same month). The THEATRiCAL cut wasn't included until later (with the SE DVD's).\n\nSee http://www.movie-censorship.com/report.php?ID=4281 for differences.\n\nenjoy!\n\nLooking for:\n75TB+ Archives\nDUTCH/FLEMiSH Archives\n                                                                                                    \nGreets: CRBS EPiSODE FiCO FLS iLS KLASSiGER LiPSYNC MADE NODLABS RUNNER SPRiNTER      \n   \n\n                                                                    ASCII DONE BY XX^NFO 2oo9","torrent":{"xt":"urn:btih:23348b6988728c29cb9349644a2bcc3f9cba6e56","amp;dn":"Superman.1978.Theatrical.Cut.DVDRip.XviD-EXViD","amp;tr":["udp%3A%2F%2Ftracker.openbittorrent.com%3A80","udp%3A%2F%2Fopen.demonii.com%3A1337","udp%3A%2F%2Ftracker.coppersurfer.tk%3A6969","udp%3A%2F%2Fexodus.desync.com%3A6969"],"infoHash":"23348b6988728c29cb9349644a2bcc3f9cba6e56","infoHashBuffer":{"type":"Buffer","data":[35,52,139,105,136,114,140,41,203,147,73,100,74,43,204,63,156,186,110,86]},"announce":[],"urlList":[]}}